<?xml version="1.0" encoding="UTF-8" standalone="no"?><!DOCTYPE svg PUBLIC "-//W3C//DTD SVG 1.1//EN" "http://www.w3.org/Graphics/SVG/1.1/DTD/svg11.dtd"><svg width="100%" height="100%" viewBox="0 0 827 725" version="1.1" xmlns="http://www.w3.org/2000/svg" xmlns:xlink="http://www.w3.org/1999/xlink" xml:space="preserve" xmlns:serif="http://www.serif.com/" style="fill-rule:evenodd;clip-rule:evenodd;stroke-linejoin:round;stroke-miterlimit:2;"><rect id="Artboard2" x="-496.366" y="-22.266" width="1936.52" height="1066.68" style="fill:none;"/><path d="M434.828,20.632c4.573,1.247 6.956,3.769 10.128,7.086c2.421,2.476 5.016,4.704 7.637,6.964c2.613,2.28 5.174,4.612 7.735,6.95c3.786,3.453 7.604,6.861 11.472,10.222c3.229,2.831 6.407,5.717 9.594,8.594c2.109,1.892 4.233,3.763 6.371,5.621c4.194,3.652 8.293,7.405 12.402,11.152c2.851,2.583 5.739,5.117 8.641,7.641c4.917,4.308 9.746,8.717 14.598,13.098c4.423,3.989 8.868,7.947 13.359,11.859c3.238,2.845 6.429,5.741 9.629,8.629c2.109,1.892 4.233,3.763 6.371,5.621c4.194,3.652 8.293,7.405 12.402,11.152c2.851,2.583 5.739,5.117 8.641,7.641c4.954,4.341 9.824,8.779 14.703,13.203c1.301,1.178 1.301,1.178 2.629,2.379c1.17,1.062 1.17,1.062 2.363,2.145c2.378,2.089 4.853,4.065 7.325,6.043c0.33,-26.4 0.66,-52.8 1,-80l98,-0c-0.009,12.118 -0.019,24.237 -0.028,36.722c0.01,7.67 0.022,15.34 0.041,23.01c0.031,12.178 0.054,24.357 0.031,36.535c-0.017,8.869 -0.009,17.738 0.028,26.607c0.019,4.696 0.025,9.392 0.002,14.087c-0.021,4.422 -0.009,8.843 0.027,13.265c0.008,1.621 0.004,3.242 -0.013,4.863c-0.325,8.552 -0.325,8.552 2.456,16.402c1.73,1.756 3.414,3.138 5.456,4.509c0.687,0.626 1.374,1.253 2.082,1.898c0.571,0.487 1.142,0.975 1.73,1.477c3.097,2.671 6.153,5.382 9.188,8.125c2.98,2.689 5.972,5.363 9,8c6.628,5.778 13.126,11.701 19.625,17.625c3.746,3.41 7.524,6.774 11.347,10.097c2.362,2.071 4.695,4.173 7.028,6.278c2.98,2.689 5.972,5.363 9,8c5.589,4.871 11.075,9.859 16.578,14.828c4.421,3.987 8.865,7.945 13.355,11.855c3.189,2.803 6.332,5.656 9.477,8.508c2.378,2.217 2.378,2.217 4.344,3.513c2.727,1.98 4.864,3.57 5.889,6.863c0.239,2.499 0.256,4.914 0.198,7.424c0.006,0.948 0.012,1.897 0.018,2.874c0.012,3.174 -0.027,6.346 -0.065,9.521c-0.002,2.277 -0.001,4.553 0.003,6.83c0.002,6.18 -0.039,12.358 -0.088,18.538c-0.043,6.458 -0.048,12.916 -0.056,19.374c-0.019,10.84 -0.063,21.679 -0.125,32.518c-0.065,11.163 -0.114,22.326 -0.144,33.489c-0.003,1.033 -0.003,1.033 -0.006,2.087c-0.009,3.453 -0.017,6.907 -0.026,10.361c-0.073,28.639 -0.197,57.278 -0.352,85.917c-3.227,-1.897 -6.002,-3.737 -8.707,-6.328c-1.005,-0.954 -1.005,-0.954 -2.03,-1.926c-0.685,-0.659 -1.37,-1.318 -2.076,-1.996c-4.71,-4.499 -9.46,-8.916 -14.382,-13.183c-2.295,-1.993 -4.552,-4.027 -6.805,-6.067c-2.959,-2.671 -5.93,-5.323 -8.938,-7.938c-4.194,-3.652 -8.293,-7.405 -12.402,-11.152c-2.848,-2.58 -5.733,-5.112 -8.633,-7.633c-3.229,-2.83 -6.407,-5.717 -9.594,-8.594c-2.109,-1.892 -4.233,-3.762 -6.371,-5.621c-4.194,-3.652 -8.293,-7.405 -12.402,-11.152c-2.851,-2.583 -5.739,-5.117 -8.641,-7.641c-4.917,-4.308 -9.746,-8.716 -14.598,-13.097c-3.786,-3.415 -7.577,-6.822 -11.421,-10.172c-5.59,-4.872 -11.076,-9.859 -16.579,-14.828c-3.786,-3.415 -7.577,-6.822 -11.421,-10.172c-5.59,-4.872 -11.076,-9.859 -16.579,-14.828c-4.423,-3.989 -8.868,-7.948 -13.359,-11.86c-3.238,-2.845 -6.429,-5.741 -9.629,-8.629c-2.109,-1.892 -4.233,-3.762 -6.371,-5.621c-3.175,-2.76 -6.278,-5.59 -9.375,-8.437c-3.72,-3.401 -7.512,-6.652 -11.437,-9.813c-3.763,-3.037 -7.23,-6.173 -10.59,-9.644c-2.363,-2.374 -4.891,-4.533 -7.426,-6.719c-2.613,-2.28 -5.174,-4.611 -7.734,-6.949c-3.141,-2.865 -6.291,-5.712 -9.5,-8.5c-3.209,-2.789 -6.36,-5.636 -9.5,-8.5c-3.79,-3.456 -7.611,-6.866 -11.481,-10.231c-4.917,-4.308 -9.746,-8.716 -14.598,-13.097c-3.786,-3.415 -7.577,-6.822 -11.421,-10.172c-5.59,-4.872 -11.076,-9.859 -16.579,-14.828c-3.786,-3.415 -7.577,-6.822 -11.421,-10.172c-5.59,-4.872 -11.076,-9.859 -16.579,-14.828c-4.423,-3.989 -8.868,-7.948 -13.359,-11.86c-3.238,-2.845 -6.429,-5.741 -9.629,-8.629c-2.109,-1.892 -4.233,-3.762 -6.371,-5.621c-4.194,-3.652 -8.293,-7.405 -12.402,-11.152c-2.838,-2.571 -5.712,-5.094 -8.602,-7.606c-4.058,-3.558 -8.054,-7.186 -12.058,-10.804c-2.814,1.289 -4.933,2.662 -7.172,4.793c-0.867,0.816 -0.867,0.816 -1.751,1.649c-0.603,0.576 -1.206,1.152 -1.827,1.745c-1.26,1.187 -2.521,2.373 -3.782,3.559c-0.602,0.567 -1.204,1.134 -1.824,1.718c-2.519,2.353 -5.114,4.612 -7.723,6.864c-2.333,2.029 -4.627,4.099 -6.921,6.172c-2.959,2.67 -5.93,5.323 -8.938,7.937c-3.228,2.811 -6.4,5.678 -9.562,8.563c-3.787,3.453 -7.605,6.861 -11.473,10.222c-2.362,2.071 -4.695,4.173 -7.027,6.278c-2.959,2.67 -5.93,5.323 -8.938,7.937c-3.228,2.811 -6.4,5.678 -9.562,8.563c-3.79,3.455 -7.611,6.865 -11.481,10.23c-4.046,3.545 -8.027,7.164 -12.019,10.77c-5.283,4.77 -10.58,9.519 -15.946,14.195c-4.054,3.561 -8.05,7.188 -12.054,10.805c-5.283,4.77 -10.58,9.519 -15.946,14.195c-4.054,3.561 -8.05,7.188 -12.054,10.805c-5.283,4.77 -10.58,9.519 -15.946,14.195c-4.054,3.561 -8.05,7.188 -12.054,10.805c-9.489,8.568 -9.489,8.568 -13.938,12.437c-3.228,2.811 -6.4,5.678 -9.562,8.563c-3.787,3.453 -7.605,6.861 -11.473,10.222c-2.362,2.071 -4.695,4.173 -7.027,6.278c-2.981,2.689 -5.973,5.363 -9,8c-4.717,4.11 -9.357,8.306 -14,12.5c-5.283,4.77 -10.58,9.519 -15.946,14.195c-4.054,3.561 -8.05,7.188 -12.054,10.805c-5.283,4.77 -10.58,9.519 -15.946,14.195c-4.054,3.561 -8.05,7.188 -12.054,10.805c-9.489,8.568 -9.489,8.568 -13.938,12.437c-3.228,2.811 -6.4,5.678 -9.562,8.563c-3.787,3.453 -7.605,6.861 -11.473,10.222c-2.362,2.071 -4.695,4.173 -7.027,6.278c-2.959,2.67 -5.93,5.323 -8.938,7.937c-3.228,2.811 -6.4,5.678 -9.562,8.563c-3.79,3.455 -7.611,6.865 -11.481,10.23c-2.316,2.029 -4.606,4.084 -6.894,6.145c-0.833,0.749 -1.666,1.498 -2.524,2.269c-1.805,1.634 -3.601,3.278 -5.391,4.93c-0.894,0.821 -1.789,1.642 -2.71,2.488c-0.815,0.754 -1.63,1.508 -2.469,2.285c-2.031,1.653 -2.031,1.653 -4.031,1.653l-0,2l-2,-0c-0.328,-24.679 -0.575,-49.357 -0.726,-74.037c-0.072,-11.46 -0.17,-22.919 -0.331,-34.379c-0.139,-9.992 -0.23,-19.983 -0.261,-29.976c-0.018,-5.288 -0.06,-10.574 -0.163,-15.861c-0.095,-4.986 -0.124,-9.968 -0.103,-14.954c-0.004,-1.822 -0.031,-3.644 -0.085,-5.465c-0.407,-14.415 -0.407,-14.415 4.745,-20.262c2.908,-2.878 6.012,-5.424 9.298,-7.856c2.042,-1.521 3.928,-3.189 5.813,-4.898c0.602,-0.519 1.204,-1.039 1.824,-1.574c2.529,-2.211 5.007,-4.474 7.489,-6.738c3.789,-3.456 7.61,-6.866 11.48,-10.231c4.046,-3.545 8.027,-7.164 12.02,-10.769c5.282,-4.771 10.579,-9.519 15.945,-14.196c4.054,-3.561 8.05,-7.188 12.055,-10.804c5.279,-4.768 10.572,-9.515 15.937,-14.188c3.238,-2.845 6.429,-5.741 9.629,-8.629c2.109,-1.892 4.233,-3.762 6.371,-5.621c3.228,-2.811 6.4,-5.678 9.563,-8.562c3.789,-3.456 7.61,-6.866 11.48,-10.231c4.046,-3.545 8.027,-7.164 12.02,-10.769c5.282,-4.771 10.579,-9.519 15.945,-14.196c4.054,-3.561 8.05,-7.188 12.055,-10.804c5.282,-4.771 10.579,-9.519 15.945,-14.196c4.054,-3.561 8.05,-7.188 12.055,-10.804c5.282,-4.771 10.579,-9.519 15.945,-14.196c4.054,-3.561 8.05,-7.188 12.055,-10.804c5.279,-4.768 10.572,-9.515 15.937,-14.188c3.238,-2.845 6.429,-5.741 9.629,-8.629c2.109,-1.892 4.233,-3.762 6.371,-5.621c3.228,-2.811 6.4,-5.678 9.563,-8.562c3.789,-3.456 7.61,-6.866 11.48,-10.231c4.046,-3.545 8.027,-7.164 12.02,-10.769c9.488,-8.569 9.488,-8.569 13.937,-12.438c3.228,-2.811 6.4,-5.678 9.563,-8.562c3.789,-3.456 7.61,-6.866 11.48,-10.231c4.046,-3.545 8.027,-7.164 12.02,-10.769c5.282,-4.771 10.579,-9.519 15.945,-14.196c4.054,-3.561 8.05,-7.188 12.055,-10.804c5.282,-4.771 10.579,-9.519 15.945,-14.196c4.054,-3.561 8.05,-7.188 12.055,-10.804c5.279,-4.768 10.572,-9.515 15.937,-14.188c3.225,-2.833 6.403,-5.717 9.59,-8.594c2.968,-2.663 5.967,-5.29 8.976,-7.906c0.853,-0.748 1.695,-1.51 2.497,-2.312Z" style="fill:#b9a25f;fill-rule:nonzero;"/><path d="M280.942,0.178c1.015,-0.001 2.03,-0.002 3.076,-0.002c3.35,0.003 6.698,0.034 10.048,0.065c2.324,0.007 4.649,0.013 6.973,0.017c6.115,0.015 12.228,0.055 18.342,0.099c6.241,0.041 12.481,0.059 18.722,0.079c12.242,0.043 24.483,0.111 36.725,0.196c-4.034,4.041 -8.136,7.983 -12.313,11.875c-0.669,0.624 -1.339,1.248 -2.028,1.891c-3.847,3.577 -7.725,7.103 -11.706,10.531c-2.52,2.196 -4.984,4.45 -7.453,6.703c-3.764,3.432 -7.562,6.815 -11.407,10.156c-2.558,2.252 -5.075,4.547 -7.593,6.844c-3.764,3.432 -7.562,6.815 -11.407,10.156c-2.558,2.252 -5.075,4.547 -7.593,6.844c-3.787,3.453 -7.605,6.861 -11.473,10.222c-2.362,2.071 -4.695,4.173 -7.027,6.278c-2.959,2.67 -5.93,5.323 -8.938,7.937c-3.228,2.811 -6.4,5.678 -9.562,8.563c-3.79,3.455 -7.611,6.865 -11.481,10.23c-4.046,3.545 -8.027,7.164 -12.019,10.77c-5.283,4.77 -10.58,9.519 -15.946,14.195c-4.054,3.561 -8.05,7.188 -12.054,10.805c-5.28,4.768 -10.573,9.515 -15.938,14.187c-3.238,2.845 -6.429,5.741 -9.629,8.629c-2.109,1.892 -4.233,3.763 -6.371,5.621c-3.228,2.811 -6.4,5.678 -9.562,8.563c-3.79,3.455 -7.611,6.865 -11.481,10.23c-4.046,3.545 -8.027,7.164 -12.019,10.77c-5.283,4.77 -10.58,9.519 -15.946,14.195c-4.054,3.561 -8.05,7.188 -12.054,10.805c-5.283,4.77 -10.58,9.519 -15.946,14.195c-4.054,3.561 -8.05,7.188 -12.054,10.805c-5.283,4.77 -10.58,9.519 -15.946,14.195c-4.054,3.561 -8.05,7.188 -12.054,10.805c-5.28,4.768 -10.573,9.515 -15.938,14.187c-3.238,2.845 -6.429,5.741 -9.629,8.629c-2.109,1.892 -4.233,3.763 -6.371,5.621c-3.228,2.811 -6.4,5.678 -9.562,8.563c-3.824,3.486 -7.671,6.937 -11.579,10.328c-1.392,1.211 -2.776,2.431 -4.156,3.656c-0.727,0.645 -1.454,1.289 -2.203,1.953c-0.659,0.587 -1.317,1.173 -1.996,1.777c-1.566,1.286 -1.566,1.286 -2.566,1.286c-0.279,-11.935 -0.492,-23.87 -0.622,-35.808c-0.063,-5.544 -0.147,-11.086 -0.284,-16.629c-0.131,-5.356 -0.202,-10.709 -0.233,-16.067c-0.022,-2.037 -0.065,-4.074 -0.13,-6.11c-0.515,-16.775 -0.515,-16.775 3.877,-22.032c2.857,-2.849 6.044,-5.107 9.392,-7.354c1.372,-1.166 2.732,-2.348 4.062,-3.563c0.62,-0.537 1.24,-1.075 1.879,-1.629c2.548,-2.238 5.053,-4.522 7.559,-6.808c3.763,-3.433 7.561,-6.816 11.406,-10.157c2.558,-2.252 5.075,-4.547 7.594,-6.843c3.789,-3.456 7.61,-6.866 11.48,-10.231c4.046,-3.545 8.027,-7.164 12.02,-10.769c5.279,-4.768 10.572,-9.515 15.937,-14.188c3.238,-2.845 6.429,-5.741 9.629,-8.629c2.109,-1.892 4.233,-3.762 6.371,-5.621c3.228,-2.811 6.4,-5.678 9.563,-8.562c3.789,-3.456 7.61,-6.866 11.48,-10.231c4.046,-3.545 8.027,-7.164 12.02,-10.769c5.279,-4.768 10.572,-9.515 15.937,-14.188c3.238,-2.845 6.429,-5.741 9.629,-8.629c2.109,-1.892 4.233,-3.762 6.371,-5.621c4.196,-3.653 8.296,-7.407 12.406,-11.156c2.824,-2.558 5.687,-5.064 8.563,-7.563c2.558,-2.252 5.075,-4.547 7.594,-6.843c3.786,-3.454 7.604,-6.861 11.472,-10.223c2.362,-2.071 4.695,-4.172 7.028,-6.277c2.958,-2.671 5.929,-5.323 8.937,-7.938c3.228,-2.811 6.4,-5.678 9.563,-8.562c3.789,-3.456 7.61,-6.866 11.48,-10.231c4.954,-4.341 9.824,-8.778 14.703,-13.203c1.301,-1.178 1.301,-1.178 2.629,-2.379c0.78,-0.708 1.56,-1.415 2.363,-2.144c0.767,-0.675 1.534,-1.349 2.325,-2.043c0.996,-1.04 0.996,-1.04 2.013,-2.1c4.334,-2.758 8.064,-2.43 13.101,-2.354Z" style="fill:#b9a25f;fill-rule:nonzero;"/><path d="M94.056,0.064c1.015,-0.001 2.03,-0.001 3.076,-0.002c3.344,0.003 6.687,0.042 10.031,0.081c2.324,0.01 4.647,0.017 6.97,0.022c6.106,0.019 12.211,0.068 18.317,0.123c6.234,0.052 12.468,0.074 18.702,0.1c12.225,0.053 24.45,0.138 36.676,0.244c-0.785,0.784 -1.57,1.567 -2.378,2.375c-1.532,1.533 -3.061,3.071 -4.579,4.617c-3.837,3.893 -7.769,7.594 -11.911,11.16c-2.406,2.085 -4.77,4.213 -7.132,6.348c-2.959,2.67 -5.93,5.323 -8.938,7.937c-3.228,2.811 -6.4,5.678 -9.562,8.563c-3.787,3.453 -7.605,6.861 -11.473,10.222c-2.362,2.071 -4.695,4.173 -7.027,6.278c-2.959,2.67 -5.93,5.323 -8.938,7.937c-3.228,2.811 -6.4,5.678 -9.562,8.563c-3.79,3.455 -7.611,6.865 -11.481,10.23c-4.046,3.545 -8.027,7.164 -12.019,10.77c-5.283,4.77 -10.58,9.519 -15.946,14.195c-4.054,3.561 -8.05,7.188 -12.054,10.805c-5.28,4.768 -10.573,9.515 -15.938,14.187c-3.238,2.845 -6.429,5.741 -9.629,8.629c-2.741,2.46 -5.516,4.879 -8.297,7.293c-3.531,3.125 -6.975,6.346 -10.426,9.559c-2.769,2.382 -5.658,4.332 -8.71,6.332c-0.233,-11.97 -0.41,-23.939 -0.519,-35.911c-0.052,-5.56 -0.122,-11.118 -0.236,-16.677c-0.109,-5.368 -0.168,-10.736 -0.194,-16.106c-0.019,-2.044 -0.055,-4.088 -0.109,-6.132c-0.407,-16.022 -0.407,-16.022 3.249,-21.395c2.496,-2.268 4.932,-4.035 7.809,-5.779c0.951,-0.859 1.902,-1.717 2.882,-2.602c3.663,-3.305 7.332,-6.599 11.055,-9.836c3.228,-2.811 6.4,-5.678 9.563,-8.562c3.786,-3.454 7.604,-6.861 11.472,-10.223c2.362,-2.071 4.695,-4.172 7.028,-6.277c2.958,-2.671 5.929,-5.323 8.937,-7.938c4.183,-3.639 8.267,-7.384 12.352,-11.133c1.342,-1.202 1.342,-1.202 2.711,-2.429c0.834,-0.864 1.669,-1.727 2.53,-2.617c4.177,-3.438 8.497,-3.049 13.698,-2.951Z" style="fill:#b9a25f;fill-rule:nonzero;"/><rect x="453.828" y="613.632" width="110" height="111" style="fill:#b9a25f;fill-rule:nonzero;"/><rect x="270.828" y="613.632" width="110" height="111" style="fill:#b9a25f;fill-rule:nonzero;"/><rect x="453.828" y="440.632" width="110" height="110" style="fill:#baa360;fill-rule:nonzero;"/><rect x="270.828" y="440.632" width="110" height="110" style="fill:#b9a35f;fill-rule:nonzero;"/></svg>