<?xml version="1.0" encoding="UTF-8" standalone="no"?><!DOCTYPE svg PUBLIC "-//W3C//DTD SVG 1.1//EN" "http://www.w3.org/Graphics/SVG/1.1/DTD/svg11.dtd"><svg width="100%" height="100%" viewBox="0 0 1434 1194" version="1.1" xmlns="http://www.w3.org/2000/svg" xmlns:xlink="http://www.w3.org/1999/xlink" xml:space="preserve" xmlns:serif="http://www.serif.com/" style="fill-rule:evenodd;clip-rule:evenodd;stroke-linejoin:round;stroke-miterlimit:2;"><rect id="Artboard3" x="-0" y="-0" width="1433.03" height="1193.5" style="fill:none;"/><path d="M1026.64,90.216c11.189,5.577 11.189,5.577 22.604,11.267c18.996,9.799 37.789,19.511 55.914,30.535l-0,6.967c-71.236,10.713 -116.371,8.402 -182.471,-18.051c-76.999,-30.329 -165.296,-44.199 -249.38,-37.685c-7.51,0.565 -15.02,1.131 -22.758,1.714c-163.402,17.363 -308.179,85.92 -411.914,199.758c-86.788,109.577 -112.046,234.025 -88.399,365.629c30.827,117.415 116.003,220.519 229.118,285.488c141.761,77.635 323.473,94.16 484.851,63.574c139.232,-29.342 258.187,-96.308 335.666,-204.112c54.137,-79.415 82.501,-150.921 81.462,-244.39c-0.048,-7.364 -0.096,-14.729 -0.145,-22.316c-1.215,-53.743 -8.159,-96.945 -34.697,-145.763c-2.176,-4.985 -4.352,-9.969 -6.594,-15.105c-21.707,-45.889 -64.406,-89.549 -114.741,-111.88c-40.651,-10.954 -84.81,-14.438 -124.004,2.014c-16.536,10.525 -30.745,21.674 -45.179,34.399c-4.666,4.042 -9.332,8.083 -14.139,12.247c-49.741,46.778 -95.185,104.082 -103.638,168.896l-15.704,-0c-0.891,4.706 -1.781,9.412 -2.699,14.26c-6.145,24.536 -15.193,47.44 -24.782,71.086c-3.482,8.657 -6.964,17.315 -10.551,26.235c-9.079,20.792 -9.079,20.792 -16.931,27.759c-28.605,8.205 -50.041,8.853 -78.518,0c-29.721,-25.62 -49.549,-59.286 -69.846,-91.01c-11.78,-18.331 -24.525,-36.104 -37.135,-53.991c-18.648,-27.288 -18.648,-27.288 -18.648,-43.108l-15.704,-0c0.091,4.221 0.182,8.442 0.276,12.791c0.071,5.837 0.142,11.675 0.215,17.689c0.091,5.658 0.182,11.316 0.276,17.146c-0.618,17.756 -2.217,34.69 -4.448,52.307c-5.982,50.442 -6.981,101.084 -8.588,151.75c-0.34,10.088 -0.682,20.176 -1.027,30.263c-0.836,24.457 -1.621,48.914 -2.408,73.372l-157.036,-0c5.83,-21.842 11.66,-43.683 17.666,-66.187c21.948,-84.158 38.216,-168.944 53,-254.296c2.232,-12.529 2.232,-12.529 4.509,-25.31c4.069,-28.551 6.067,-56.999 7.76,-85.727c0.508,-8.144 0.508,-8.144 1.027,-16.452c0.824,-13.239 1.619,-26.479 2.408,-39.72c35.738,-5.656 66.557,-7.488 102.074,0c24.795,22.713 38.907,48.584 54.575,76.794c14.885,24.891 33.365,47.683 51.424,70.82c35.334,45.468 35.334,45.468 35.334,61.397l15.703,-0c0.577,-4.527 1.154,-9.053 1.748,-13.716c8.516,-29.466 24.229,-53.917 40.947,-80.339c3.495,-5.535 6.991,-11.07 10.593,-16.773c56.589,-87.638 128.934,-188.439 245.082,-216.622c74.094,-9.351 136.055,8.67 196.786,46.156c113.94,82.348 174.025,201.706 189.706,330.522c10.408,123.711 -26.845,234.59 -95.975,340.925c-3.795,5.999 -7.591,11.999 -11.501,18.18c-48.412,70.225 -122.243,127.023 -200.498,169.93c-8.128,4.508 -16.255,9.017 -24.629,13.662c-35.848,17.988 -74.215,28.703 -113.269,39.897c-10.832,3.213 -10.832,3.213 -21.884,6.49c-175.421,51.139 -387.816,36.134 -554.735,-32.181c-166.953,-75.737 -274.573,-192.385 -337.628,-348.351c-50.086,-153.3 -22.946,-295.319 57.692,-436.555c56.192,-86.585 148.716,-165.533 248.529,-211.378c4.834,-2.268 9.669,-4.536 14.649,-6.872c201.644,-93.53 455.214,-117.412 660.609,-14.029Z" style="fill:#ba9c48;fill-rule:nonzero;"/><path d="M1034.49,180.787c-8.259,5.173 -8.259,5.173 -16.685,10.45c-46.422,35.819 -71.237,73.977 -92.167,124.754c-13.178,26.681 -31.874,48.959 -51.435,72.228c-22.522,28.056 -30.753,50.988 -36.008,85.183l-15.704,-0c-0.891,4.706 -1.781,9.412 -2.699,14.26c-6.145,24.536 -15.193,47.44 -24.782,71.086c-5.223,12.986 -5.223,12.986 -10.551,26.235c-9.079,20.792 -9.079,20.792 -16.931,27.759c-28.605,8.205 -50.041,8.853 -78.518,0c-29.721,-25.62 -49.549,-59.286 -69.846,-91.01c-11.78,-18.331 -24.525,-36.104 -37.135,-53.991c-18.648,-27.288 -18.648,-27.288 -18.648,-43.108l-15.704,-0c0.091,4.221 0.182,8.442 0.276,12.791c0.071,5.837 0.142,11.675 0.215,17.689c0.091,5.658 0.182,11.316 0.276,17.146c-0.618,17.756 -2.217,34.69 -4.448,52.307c-5.982,50.442 -6.981,101.084 -8.588,151.75c-0.34,10.088 -0.682,20.176 -1.027,30.263c-0.836,24.457 -1.621,48.914 -2.408,73.372l-157.036,-0c5.83,-21.842 11.66,-43.683 17.666,-66.187c21.948,-84.158 38.216,-168.944 53,-254.296c1.488,-8.353 2.976,-16.705 4.509,-25.31c4.069,-28.551 6.067,-56.999 7.76,-85.727c0.339,-5.429 0.678,-10.858 1.027,-16.452c0.824,-13.239 1.619,-26.479 2.408,-39.72c35.738,-5.656 66.557,-7.488 102.074,0c24.795,22.713 38.907,48.584 54.575,76.794c14.885,24.891 33.365,47.683 51.424,70.82c35.334,45.468 35.334,45.468 35.334,61.397l15.703,-0c0.577,-4.527 1.154,-9.053 1.748,-13.716c8.516,-29.466 24.229,-53.917 40.947,-80.339c3.495,-5.535 6.991,-11.07 10.593,-16.773c141.413,-219.001 141.413,-219.001 260.785,-209.655Z" style="fill:#c5aa56;fill-rule:nonzero;"/><path d="M461.306,299.226l7.852,0c2.591,18.393 5.182,36.786 7.851,55.736c4.636,0.674 9.272,1.348 14.048,2.042c28.959,8.217 40.368,23.011 56.097,45.503c12.85,33.955 6.661,64.906 1.243,99.595c-9.214,59.469 -11.711,118.648 -13.48,178.569c-0.312,9.848 -0.624,19.697 -0.938,29.545c-0.714,23.244 -1.367,46.489 -2.007,69.735l-157.036,-0c5.83,-21.842 11.66,-43.683 17.666,-66.187c35.502,-137.214 57.719,-274.124 68.704,-414.538Z" style="fill:#b99a48;fill-rule:nonzero;"/><path d="M948.119,389.798l15.704,-0c4.778,23.798 9.514,47.603 14.231,71.412c1.432,7.217 2.863,14.435 4.338,21.872c9.283,47.334 17.528,94.719 25.107,142.288c6.686,41.68 14.672,81.424 30.518,121.297c4.324,12.383 4.324,12.383 4.324,33.284l-149.185,-0c0.092,-10.176 0.183,-20.351 0.276,-30.835c1.296,-82.886 1.296,-82.886 -4.201,-165.548c-0.638,-5.64 -1.276,-11.28 -1.933,-17.091c-1.419,-11.7 -3.012,-23.384 -4.723,-35.053c-4.647,-53.081 16.046,-83.203 50.27,-126.032c5.041,-5.146 10.081,-10.292 15.274,-15.594Z" style="fill:#c6ab57;fill-rule:nonzero;"/><path d="M1034.49,180.787c-5.506,3.449 -11.012,6.897 -16.685,10.45c-46.494,35.874 -71.213,74.081 -92.259,124.89c-12.83,26.05 -31.143,47.557 -50.055,70.378c-20.264,25.404 -36.735,52.396 -53,79.93l-23.556,-0c-10.031,-113.881 -10.031,-113.881 38.309,-165.059c5.496,-5.307 10.992,-10.615 16.654,-16.084c5.577,-6.098 11.154,-12.196 16.9,-18.479c44.055,-46.784 91.046,-89.407 163.692,-86.026Z" style="fill:#d0ba64;fill-rule:nonzero;"/><path d="M1003.08,682.412c15.704,6.967 15.704,6.967 24.537,29.61c5.729,21.786 8.381,38.85 6.87,60.962l-47.111,-0c-10.601,-28.22 -4.874,-47.32 0,-76.638l15.704,0l0,-13.934Z" style="fill:#cdb763;fill-rule:nonzero;"/><path d="M853.897,1016.83l0,13.935c-48.427,7.653 -95.668,7.77 -144.768,7.402c-7.991,-0.031 -15.982,-0.063 -24.215,-0.095c-19.574,-0.082 -39.146,-0.196 -58.72,-0.34l0,-13.935c24.699,-1.188 49.4,-2.338 74.102,-3.483c10.347,-0.498 10.347,-0.498 20.902,-1.007c44.303,-2.031 88.337,-2.797 132.699,-2.477Z" style="fill:#ceb054;fill-rule:nonzero;"/><path d="M516.269,389.798c23.555,6.967 23.555,6.967 32.998,19.261c7.297,18.152 6.84,29.696 4.359,48.776c-0.759,6.197 -1.518,12.394 -2.3,18.778c-1.321,9.619 -1.321,9.619 -2.669,19.432c-0.819,6.52 -1.639,13.04 -2.484,19.758c-2.032,16.066 -4.151,32.12 -6.349,48.17l-7.852,0c-0.475,-6.96 -0.951,-13.92 -1.441,-21.091c-0.658,-8.99 -1.316,-17.98 -1.994,-27.243c-0.638,-8.972 -1.275,-17.944 -1.932,-27.187c0.27,-21.044 0.27,-21.044 -10.336,-28.984c-0.566,-11.747 -0.659,-23.514 -0.491,-35.271c0.071,-6.403 0.142,-12.807 0.215,-19.404c0.091,-4.949 0.182,-9.897 0.276,-14.995Z" style="fill:#ad8e3c;fill-rule:nonzero;"/><path d="M202.195,786.918c28.073,8.303 30.313,13.89 45.148,35.706c22.88,31.88 49.229,57.217 80.482,82.733c-2.591,6.897 -5.183,13.795 -7.852,20.901c-32.944,-21.436 -56.518,-45.011 -80.972,-73.589c-3.568,-4.019 -7.136,-8.038 -10.812,-12.179c-25.994,-30.07 -25.994,-30.07 -25.994,-53.572Z" style="fill:#d4bf64;fill-rule:nonzero;"/><path d="M791.083,361.929l7.851,0c2.592,45.983 5.183,91.965 7.852,139.341c-15.546,6.897 -15.546,6.897 -31.407,13.934c-2.3,-121.325 -2.3,-121.325 15.704,-153.275Z" style="fill:#bca149;fill-rule:nonzero;"/><path d="M1128.71,187.754c12.956,2.299 25.911,4.598 39.26,6.967c-10.77,20.581 -23.467,37.901 -39.26,55.736c-10.364,-2.299 -20.728,-4.598 -31.407,-6.967c4.705,-23.381 14.496,-37.469 31.407,-55.736Z" style="fill:#b4933e;fill-rule:nonzero;"/><path d="M830.342,445.534c2.591,9.196 5.182,18.393 7.852,27.868l-15.704,-0c-0.81,4.742 -1.619,9.484 -2.454,14.369c-6.554,24.849 -17.134,45.981 -28.953,69.235c-7.774,-2.299 -15.547,-4.598 -23.556,-6.967c1.963,-16.547 1.963,-16.547 7.852,-34.835c16.194,-9.144 16.194,-9.144 31.407,-13.934c-0.486,-5.317 -0.971,-10.634 -1.472,-16.111c1.472,-18.724 1.472,-18.724 13.25,-31.352c3.887,-2.73 7.773,-5.46 11.778,-8.273Z" style="fill:#a68e46;fill-rule:nonzero;"/><path d="M901.008,689.379l7.852,0l0,76.638c41.458,2.299 82.915,4.598 125.629,6.967c2.592,-4.599 5.183,-9.197 7.852,-13.934l0,20.901l-149.185,-0c2.592,-29.889 5.183,-59.777 7.852,-90.572Z" style="fill:#b29951;fill-rule:nonzero;"/><path d="M1238.64,354.962c32.597,23.759 51.279,54.904 62.815,90.572c-3.098,15.893 -3.098,15.893 -7.852,27.868c-15.704,-6.967 -15.704,-6.967 -23.832,-24.956c-2.662,-7.428 -5.324,-14.855 -8.066,-22.507c-2.682,-7.373 -5.365,-14.747 -8.128,-22.343c-5.513,-16.159 -10.589,-32.206 -14.937,-48.634Z" style="fill:#9b6f20;fill-rule:nonzero;"/><path d="M743.972,438.567c7.589,21.749 7.772,38.463 4.416,60.961c-0.799,5.568 -1.599,11.136 -2.423,16.873c-0.987,6.305 -0.987,6.305 -1.993,12.737c-10.365,-4.598 -20.729,-9.196 -31.408,-13.934c8.174,-26.938 15.994,-52.215 31.408,-76.637Z" style="fill:#8b6621;fill-rule:nonzero;"/><path d="M916.712,222.589c2.591,6.897 5.182,13.795 7.852,20.901c-25.911,22.991 -51.822,45.982 -78.519,69.67c0,-28.828 13.467,-36.292 35.334,-57.042c6.558,-6.278 13.117,-12.556 19.875,-19.023c7.652,-7.181 7.652,-7.181 15.458,-14.506Z" style="fill:#b7a95f;fill-rule:nonzero;"/><path d="M979.527,598.808c7.773,2.299 15.546,4.598 23.555,6.967l0,62.703c-7.773,2.3 -15.547,4.599 -23.555,6.967l-0,-76.637Z" style="fill:#ccb660;fill-rule:nonzero;"/><path d="M516.269,389.798c23.555,6.967 23.555,6.967 33.063,19.05c7.544,19.22 6.231,32.265 3.251,52.362c-0.87,6.214 -1.741,12.429 -2.637,18.832c-0.749,4.706 -1.498,9.412 -2.27,14.261l-7.852,-0c-8.955,-34.716 -17.449,-69.285 -23.555,-104.505Z" style="fill:#926f2c;fill-rule:nonzero;"/><path d="M1050.19,111.117c15.864,4.193 31.573,8.869 47.111,13.934c2.591,4.598 5.182,9.196 7.852,13.934l-86.37,-0l-0,-6.967l39.259,-0c-2.591,-6.898 -5.182,-13.795 -7.852,-20.901Z" style="fill:#cfc26e;fill-rule:nonzero;"/><path d="M202.195,786.918c23.556,6.967 23.556,6.967 36.806,28.303c3.401,6.754 6.801,13.508 10.305,20.466l-23.555,-0c-18.509,-17.64 -23.556,-24.189 -23.556,-48.769Z" style="fill:#c2b360;fill-rule:nonzero;"/><path d="M940.267,403.732c2.592,4.598 5.183,9.196 7.852,13.934c-2.591,4.598 -5.182,9.196 -7.852,13.934c-0.315,16.254 -0.339,32.515 0,48.769c-7.773,3.448 -7.773,3.448 -15.703,6.967l-0,-34.835l-15.704,-0c9.452,-17.373 19.271,-32.616 31.407,-48.769Z" style="fill:#a78f48;fill-rule:nonzero;"/><path d="M524.12,995.928c18.138,2.3 36.276,4.599 54.963,6.967c2.591,6.898 5.182,13.795 7.852,20.901l-54.963,0c5.182,-4.598 10.365,-9.196 15.704,-13.934c-7.773,-4.598 -15.547,-9.196 -23.556,-13.934Z" style="fill:#b1984e;fill-rule:nonzero;"/><path d="M492.713,995.928c18.398,1.781 36.734,4.13 54.963,6.967c2.591,4.599 5.182,9.197 7.852,13.934c-45.148,0.871 -45.148,0.871 -62.815,-6.967l0,-13.934Z" style="fill:#d4b558;fill-rule:nonzero;"/></svg>